<mxfile host="app.diagrams.net" modified="2021-08-21T07:35:20.534Z" agent="5.0 (Windows)" etag="l7LnPqLV1lurTEOER8yE" version="14.9.8" type="github">
  <diagram id="LXL1NXqvXz7W8JA6Dsug" name="Page-1">
    <mxGraphModel dx="2249" dy="660" grid="1" gridSize="10" guides="1" tooltips="1" connect="1" arrows="1" fold="1" page="0" pageScale="1" pageWidth="850" pageHeight="1100" math="0" shadow="0">
      <root>
        <mxCell id="0" />
        <mxCell id="1" parent="0" />
        <mxCell id="jss7JCfpPxiry4sK2nVC-1" value="s3n:Algorithm" style="rounded=1;whiteSpace=wrap;html=1;fontSize=15;" parent="1" vertex="1">
          <mxGeometry y="220" width="120" height="30" as="geometry" />
        </mxCell>
        <mxCell id="jss7JCfpPxiry4sK2nVC-13" value=":title" style="edgeStyle=orthogonalEdgeStyle;rounded=0;orthogonalLoop=1;jettySize=auto;html=1;exitX=0.5;exitY=1;exitDx=0;exitDy=0;fontSize=15;entryX=1;entryY=0.5;entryDx=0;entryDy=0;" parent="1" source="jss7JCfpPxiry4sK2nVC-2" target="jss7JCfpPxiry4sK2nVC-33" edge="1">
          <mxGeometry x="0.6345" relative="1" as="geometry">
            <mxPoint x="-90" y="495" as="targetPoint" />
            <Array as="points">
              <mxPoint x="60" y="538" />
            </Array>
            <mxPoint as="offset" />
          </mxGeometry>
        </mxCell>
        <mxCell id="jss7JCfpPxiry4sK2nVC-15" value=":id" style="edgeStyle=orthogonalEdgeStyle;rounded=0;orthogonalLoop=1;jettySize=auto;html=1;exitX=0.5;exitY=1;exitDx=0;exitDy=0;entryX=1;entryY=0.5;entryDx=0;entryDy=0;fontSize=15;" parent="1" source="jss7JCfpPxiry4sK2nVC-2" target="jss7JCfpPxiry4sK2nVC-34" edge="1">
          <mxGeometry x="0.6794" relative="1" as="geometry">
            <mxPoint x="60" y="740" as="targetPoint" />
            <mxPoint as="offset" />
          </mxGeometry>
        </mxCell>
        <mxCell id="jss7JCfpPxiry4sK2nVC-16" value=":weights" style="edgeStyle=orthogonalEdgeStyle;rounded=0;orthogonalLoop=1;jettySize=auto;html=1;exitX=0.5;exitY=1;exitDx=0;exitDy=0;entryX=1;entryY=0.5;entryDx=0;entryDy=0;fontSize=15;" parent="1" source="jss7JCfpPxiry4sK2nVC-2" target="jss7JCfpPxiry4sK2nVC-3" edge="1">
          <mxGeometry x="0.5636" relative="1" as="geometry">
            <mxPoint x="520.0000000000002" y="510" as="targetPoint" />
            <mxPoint as="offset" />
          </mxGeometry>
        </mxCell>
        <mxCell id="jss7JCfpPxiry4sK2nVC-20" value=":inputLayer" style="edgeStyle=orthogonalEdgeStyle;rounded=0;orthogonalLoop=1;jettySize=auto;html=1;exitX=0.5;exitY=1;exitDx=0;exitDy=0;entryX=1;entryY=0.25;entryDx=0;entryDy=0;fontSize=15;" parent="1" source="jss7JCfpPxiry4sK2nVC-2" target="jss7JCfpPxiry4sK2nVC-19" edge="1">
          <mxGeometry x="0.1351" relative="1" as="geometry">
            <mxPoint as="offset" />
          </mxGeometry>
        </mxCell>
        <mxCell id="jss7JCfpPxiry4sK2nVC-23" value=":outputLayer" style="edgeStyle=orthogonalEdgeStyle;rounded=0;orthogonalLoop=1;jettySize=auto;html=1;exitX=0.5;exitY=1;exitDx=0;exitDy=0;entryX=1;entryY=0.5;entryDx=0;entryDy=0;fontSize=15;" parent="1" source="jss7JCfpPxiry4sK2nVC-2" target="jss7JCfpPxiry4sK2nVC-19" edge="1">
          <mxGeometry x="0.2" relative="1" as="geometry">
            <mxPoint x="-250" y="400" as="targetPoint" />
            <mxPoint as="offset" />
          </mxGeometry>
        </mxCell>
        <mxCell id="jss7JCfpPxiry4sK2nVC-24" value=":middleLayer" style="edgeStyle=orthogonalEdgeStyle;rounded=0;orthogonalLoop=1;jettySize=auto;html=1;exitX=0.5;exitY=1;exitDx=0;exitDy=0;entryX=1;entryY=0.75;entryDx=0;entryDy=0;fontSize=15;" parent="1" source="jss7JCfpPxiry4sK2nVC-2" target="jss7JCfpPxiry4sK2nVC-19" edge="1">
          <mxGeometry x="0.2558" relative="1" as="geometry">
            <mxPoint as="offset" />
          </mxGeometry>
        </mxCell>
        <mxCell id="jss7JCfpPxiry4sK2nVC-37" value=":description" style="edgeStyle=orthogonalEdgeStyle;rounded=0;orthogonalLoop=1;jettySize=auto;html=1;exitX=0.5;exitY=1;exitDx=0;exitDy=0;entryX=0;entryY=0.5;entryDx=0;entryDy=0;fontSize=15;" parent="1" source="jss7JCfpPxiry4sK2nVC-2" target="jss7JCfpPxiry4sK2nVC-36" edge="1">
          <mxGeometry x="0.12" relative="1" as="geometry">
            <mxPoint as="offset" />
          </mxGeometry>
        </mxCell>
        <mxCell id="jss7JCfpPxiry4sK2nVC-38" value=":multiplyAccumulateOps" style="edgeStyle=orthogonalEdgeStyle;rounded=0;orthogonalLoop=1;jettySize=auto;html=1;exitX=0.5;exitY=1;exitDx=0;exitDy=0;entryX=0;entryY=0.5;entryDx=0;entryDy=0;fontSize=15;" parent="1" source="jss7JCfpPxiry4sK2nVC-2" target="jss7JCfpPxiry4sK2nVC-30" edge="1">
          <mxGeometry x="0.3464" relative="1" as="geometry">
            <mxPoint as="offset" />
          </mxGeometry>
        </mxCell>
        <mxCell id="jss7JCfpPxiry4sK2nVC-40" value=":quantization" style="edgeStyle=orthogonalEdgeStyle;rounded=0;orthogonalLoop=1;jettySize=auto;html=1;exitX=0.5;exitY=1;exitDx=0;exitDy=0;entryX=0;entryY=0.5;entryDx=0;entryDy=0;fontSize=15;" parent="1" source="jss7JCfpPxiry4sK2nVC-2" target="jss7JCfpPxiry4sK2nVC-32" edge="1">
          <mxGeometry x="0.3973" relative="1" as="geometry">
            <mxPoint as="offset" />
          </mxGeometry>
        </mxCell>
        <mxCell id="jss7JCfpPxiry4sK2nVC-59" value="s3n:hasProcedureFeature" style="edgeStyle=orthogonalEdgeStyle;rounded=0;orthogonalLoop=1;jettySize=auto;html=1;exitX=0.5;exitY=1;exitDx=0;exitDy=0;fontSize=15;endArrow=classic;endFill=1;entryX=1;entryY=0.5;entryDx=0;entryDy=0;" parent="1" source="jss7JCfpPxiry4sK2nVC-2" target="jss7JCfpPxiry4sK2nVC-58" edge="1">
          <mxGeometry x="0.5707" relative="1" as="geometry">
            <mxPoint x="190" y="820" as="targetPoint" />
            <mxPoint as="offset" />
          </mxGeometry>
        </mxCell>
        <mxCell id="jss7JCfpPxiry4sK2nVC-66" style="edgeStyle=orthogonalEdgeStyle;rounded=0;orthogonalLoop=1;jettySize=auto;html=1;exitX=0.5;exitY=0;exitDx=0;exitDy=0;entryX=0.5;entryY=1;entryDx=0;entryDy=0;fontSize=15;endArrow=block;endFill=1;" parent="1" source="jss7JCfpPxiry4sK2nVC-2" target="jss7JCfpPxiry4sK2nVC-1" edge="1">
          <mxGeometry relative="1" as="geometry" />
        </mxCell>
        <mxCell id="vN-ApxC82CY0WaiQvZb2-4" value="ssn:hasInput " style="edgeStyle=orthogonalEdgeStyle;rounded=0;orthogonalLoop=1;jettySize=auto;html=1;exitX=0.5;exitY=1;exitDx=0;exitDy=0;entryX=0;entryY=0.5;entryDx=0;entryDy=0;endArrow=block;endFill=1;" parent="1" source="jss7JCfpPxiry4sK2nVC-2" target="9Srf9fNfijRDF5B15jsF-1" edge="1">
          <mxGeometry x="0.6825" relative="1" as="geometry">
            <mxPoint as="offset" />
          </mxGeometry>
        </mxCell>
        <mxCell id="vN-ApxC82CY0WaiQvZb2-5" value="ssn:hasOutput" style="edgeStyle=orthogonalEdgeStyle;rounded=0;orthogonalLoop=1;jettySize=auto;html=1;exitX=0.5;exitY=1;exitDx=0;exitDy=0;entryX=0;entryY=0.5;entryDx=0;entryDy=0;endArrow=block;endFill=1;" parent="1" source="jss7JCfpPxiry4sK2nVC-2" target="FwwCy6SQuPoG6flF36ar-1" edge="1">
          <mxGeometry x="0.7489" relative="1" as="geometry">
            <mxPoint as="offset" />
          </mxGeometry>
        </mxCell>
        <mxCell id="jss7JCfpPxiry4sK2nVC-2" value=":NeuralNetwork" style="rounded=1;whiteSpace=wrap;html=1;fontSize=15;" parent="1" vertex="1">
          <mxGeometry y="300" width="120" height="30" as="geometry" />
        </mxCell>
        <mxCell id="jss7JCfpPxiry4sK2nVC-3" value="schema:Text" style="rounded=1;whiteSpace=wrap;html=1;fontSize=15;" parent="1" vertex="1">
          <mxGeometry x="-180" y="470" width="120" height="30" as="geometry" />
        </mxCell>
        <mxCell id="jss7JCfpPxiry4sK2nVC-19" value=":Layer" style="rounded=1;whiteSpace=wrap;html=1;fontSize=15;" parent="1" vertex="1">
          <mxGeometry x="-160" y="350" width="70" height="60" as="geometry" />
        </mxCell>
        <mxCell id="jss7JCfpPxiry4sK2nVC-30" value="schema:Number" style="rounded=1;whiteSpace=wrap;html=1;fontSize=15;" parent="1" vertex="1">
          <mxGeometry x="260" y="425" width="120" height="32.5" as="geometry" />
        </mxCell>
        <mxCell id="jss7JCfpPxiry4sK2nVC-32" value="schema:Text" style="rounded=1;whiteSpace=wrap;html=1;fontSize=15;" parent="1" vertex="1">
          <mxGeometry x="290" y="477.75" width="90" height="30" as="geometry" />
        </mxCell>
        <mxCell id="jss7JCfpPxiry4sK2nVC-33" value="schema:Text" style="rounded=1;whiteSpace=wrap;html=1;fontSize=15;" parent="1" vertex="1">
          <mxGeometry x="-180" y="523.25" width="120" height="30" as="geometry" />
        </mxCell>
        <mxCell id="jss7JCfpPxiry4sK2nVC-34" value="schema:Text" style="rounded=1;whiteSpace=wrap;html=1;fontSize=15;" parent="1" vertex="1">
          <mxGeometry x="-180" y="569.25" width="120" height="30" as="geometry" />
        </mxCell>
        <mxCell id="jss7JCfpPxiry4sK2nVC-36" value="schema:Text" style="rounded=1;whiteSpace=wrap;html=1;fontSize=15;" parent="1" vertex="1">
          <mxGeometry x="290" y="380" width="90" height="30" as="geometry" />
        </mxCell>
        <mxCell id="jss7JCfpPxiry4sK2nVC-39" style="edgeStyle=orthogonalEdgeStyle;rounded=0;orthogonalLoop=1;jettySize=auto;html=1;exitX=0.5;exitY=1;exitDx=0;exitDy=0;fontSize=15;" parent="1" edge="1">
          <mxGeometry relative="1" as="geometry">
            <mxPoint x="395" y="640" as="sourcePoint" />
            <mxPoint x="395" y="640" as="targetPoint" />
          </mxGeometry>
        </mxCell>
        <mxCell id="jss7JCfpPxiry4sK2nVC-50" value="" style="rounded=1;whiteSpace=wrap;html=1;fontSize=16;" parent="1" vertex="1">
          <mxGeometry x="329" y="220" width="50" height="29" as="geometry" />
        </mxCell>
        <mxCell id="jss7JCfpPxiry4sK2nVC-51" value="rdfs:class" style="text;html=1;align=center;verticalAlign=middle;resizable=0;points=[];autosize=1;strokeColor=none;fontSize=16;" parent="1" vertex="1">
          <mxGeometry x="203" y="224.5" width="80" height="20" as="geometry" />
        </mxCell>
        <mxCell id="jss7JCfpPxiry4sK2nVC-52" value="rdf:property" style="text;html=1;align=center;verticalAlign=middle;resizable=0;points=[];autosize=1;strokeColor=none;fontSize=16;" parent="1" vertex="1">
          <mxGeometry x="200" y="254.5" width="100" height="20" as="geometry" />
        </mxCell>
        <mxCell id="jss7JCfpPxiry4sK2nVC-53" value="" style="endArrow=classic;html=1;fontSize=16;" parent="1" edge="1">
          <mxGeometry width="50" height="50" relative="1" as="geometry">
            <mxPoint x="329" y="264.15999999999997" as="sourcePoint" />
            <mxPoint x="379" y="264.15999999999997" as="targetPoint" />
            <Array as="points">
              <mxPoint x="339" y="264.15999999999997" />
            </Array>
          </mxGeometry>
        </mxCell>
        <mxCell id="jss7JCfpPxiry4sK2nVC-55" value="" style="endArrow=block;html=1;fontSize=16;endFill=1;" parent="1" edge="1">
          <mxGeometry width="50" height="50" relative="1" as="geometry">
            <mxPoint x="329" y="294.16" as="sourcePoint" />
            <mxPoint x="379" y="294.66" as="targetPoint" />
          </mxGeometry>
        </mxCell>
        <mxCell id="jss7JCfpPxiry4sK2nVC-63" value="ssn-system:inCondition" style="edgeStyle=orthogonalEdgeStyle;rounded=0;orthogonalLoop=1;jettySize=auto;html=1;exitX=0.5;exitY=1;exitDx=0;exitDy=0;entryX=0;entryY=0.5;entryDx=0;entryDy=0;fontSize=15;endArrow=classic;endFill=1;" parent="1" source="jss7JCfpPxiry4sK2nVC-58" target="jss7JCfpPxiry4sK2nVC-60" edge="1">
          <mxGeometry x="-0.4923" relative="1" as="geometry">
            <mxPoint as="offset" />
            <Array as="points">
              <mxPoint x="-230" y="689" />
            </Array>
          </mxGeometry>
        </mxCell>
        <mxCell id="jss7JCfpPxiry4sK2nVC-58" value="s3n:ProcedureFeature" style="rounded=1;whiteSpace=wrap;html=1;fontSize=15;" parent="1" vertex="1">
          <mxGeometry x="-310" y="626.13" width="160" height="32.25" as="geometry" />
        </mxCell>
        <mxCell id="jss7JCfpPxiry4sK2nVC-60" value="s3n:Memory" style="rounded=1;whiteSpace=wrap;html=1;fontSize=15;" parent="1" vertex="1">
          <mxGeometry x="-130" y="674" width="120" height="30" as="geometry" />
        </mxCell>
        <mxCell id="jss7JCfpPxiry4sK2nVC-67" value="rdfs:subClassOf" style="text;html=1;align=center;verticalAlign=middle;resizable=0;points=[];autosize=1;strokeColor=none;fontSize=15;" parent="1" vertex="1">
          <mxGeometry x="203" y="284.5" width="120" height="20" as="geometry" />
        </mxCell>
        <mxCell id="O1qYqZWK-9wZ80ejL66R-15" value="ssn:Input" style="rounded=1;whiteSpace=wrap;html=1;fontSize=15;" parent="1" vertex="1">
          <mxGeometry x="290" y="536" width="90" height="30" as="geometry" />
        </mxCell>
        <mxCell id="vN-ApxC82CY0WaiQvZb2-1" value="ssn:Output" style="rounded=1;whiteSpace=wrap;html=1;fontSize=15;" parent="1" vertex="1">
          <mxGeometry x="290" y="626.13" width="90" height="30" as="geometry" />
        </mxCell>
        <mxCell id="FwwCy6SQuPoG6flF36ar-2" style="edgeStyle=orthogonalEdgeStyle;rounded=0;orthogonalLoop=1;jettySize=auto;html=1;exitX=1;exitY=0.5;exitDx=0;exitDy=0;entryX=0;entryY=0.5;entryDx=0;entryDy=0;endArrow=block;endFill=1;" parent="1" source="9Srf9fNfijRDF5B15jsF-1" target="O1qYqZWK-9wZ80ejL66R-15" edge="1">
          <mxGeometry relative="1" as="geometry" />
        </mxCell>
        <mxCell id="9Srf9fNfijRDF5B15jsF-1" value=":NetworkInput" style="rounded=1;whiteSpace=wrap;html=1;fontSize=15;" parent="1" vertex="1">
          <mxGeometry x="160" y="536" width="110" height="30" as="geometry" />
        </mxCell>
        <mxCell id="FwwCy6SQuPoG6flF36ar-3" style="edgeStyle=orthogonalEdgeStyle;rounded=0;orthogonalLoop=1;jettySize=auto;html=1;exitX=1;exitY=0.5;exitDx=0;exitDy=0;entryX=0;entryY=0.5;entryDx=0;entryDy=0;endArrow=block;endFill=1;" parent="1" source="FwwCy6SQuPoG6flF36ar-1" target="vN-ApxC82CY0WaiQvZb2-1" edge="1">
          <mxGeometry relative="1" as="geometry">
            <Array as="points">
              <mxPoint x="270" y="641" />
            </Array>
          </mxGeometry>
        </mxCell>
        <mxCell id="FwwCy6SQuPoG6flF36ar-1" value=":NetworkOutput" style="rounded=1;whiteSpace=wrap;html=1;fontSize=15;" parent="1" vertex="1">
          <mxGeometry x="160" y="627.25" width="110" height="30" as="geometry" />
        </mxCell>
        <mxCell id="FwwCy6SQuPoG6flF36ar-4" style="edgeStyle=orthogonalEdgeStyle;rounded=0;orthogonalLoop=1;jettySize=auto;html=1;exitX=0;exitY=0.5;exitDx=0;exitDy=0;entryX=1;entryY=0.5;entryDx=0;entryDy=0;" parent="1" target="FwwCy6SQuPoG6flF36ar-12" edge="1">
          <mxGeometry relative="1" as="geometry">
            <Array as="points">
              <mxPoint x="-170" y="379.5" />
              <mxPoint x="-170" y="299.5" />
            </Array>
            <mxPoint x="-160" y="380" as="sourcePoint" />
          </mxGeometry>
        </mxCell>
        <mxCell id="FwwCy6SQuPoG6flF36ar-5" value=":shapeIn" style="edgeLabel;html=1;align=center;verticalAlign=middle;resizable=0;points=[];" parent="FwwCy6SQuPoG6flF36ar-4" vertex="1" connectable="0">
          <mxGeometry x="0.41" relative="1" as="geometry">
            <mxPoint x="-4" as="offset" />
          </mxGeometry>
        </mxCell>
        <mxCell id="FwwCy6SQuPoG6flF36ar-6" value="" style="edgeStyle=orthogonalEdgeStyle;rounded=0;orthogonalLoop=1;jettySize=auto;html=1;exitX=0;exitY=0.5;exitDx=0;exitDy=0;entryX=1;entryY=0.5;entryDx=0;entryDy=0;" parent="1" target="FwwCy6SQuPoG6flF36ar-13" edge="1">
          <mxGeometry x="0.5385" relative="1" as="geometry">
            <Array as="points">
              <mxPoint x="-170" y="379.5" />
              <mxPoint x="-170" y="349.5" />
            </Array>
            <mxPoint as="offset" />
            <mxPoint x="-160" y="380" as="sourcePoint" />
          </mxGeometry>
        </mxCell>
        <mxCell id="FwwCy6SQuPoG6flF36ar-7" value=":shapeOut" style="edgeLabel;html=1;align=center;verticalAlign=middle;resizable=0;points=[];" parent="FwwCy6SQuPoG6flF36ar-6" vertex="1" connectable="0">
          <mxGeometry x="0.287" relative="1" as="geometry">
            <mxPoint as="offset" />
          </mxGeometry>
        </mxCell>
        <mxCell id="FwwCy6SQuPoG6flF36ar-8" style="edgeStyle=orthogonalEdgeStyle;rounded=0;orthogonalLoop=1;jettySize=auto;html=1;exitX=0;exitY=0.5;exitDx=0;exitDy=0;entryX=1;entryY=0.5;entryDx=0;entryDy=0;" parent="1" target="FwwCy6SQuPoG6flF36ar-14" edge="1">
          <mxGeometry relative="1" as="geometry">
            <Array as="points">
              <mxPoint x="-170" y="379.5" />
              <mxPoint x="-170" y="405.5" />
            </Array>
            <mxPoint x="-160" y="380" as="sourcePoint" />
          </mxGeometry>
        </mxCell>
        <mxCell id="FwwCy6SQuPoG6flF36ar-9" value=":trainable" style="edgeLabel;html=1;align=center;verticalAlign=middle;resizable=0;points=[];" parent="FwwCy6SQuPoG6flF36ar-8" vertex="1" connectable="0">
          <mxGeometry x="0.2286" y="1" relative="1" as="geometry">
            <mxPoint as="offset" />
          </mxGeometry>
        </mxCell>
        <mxCell id="FwwCy6SQuPoG6flF36ar-10" style="edgeStyle=orthogonalEdgeStyle;rounded=0;orthogonalLoop=1;jettySize=auto;html=1;exitX=0;exitY=0.5;exitDx=0;exitDy=0;" parent="1" target="FwwCy6SQuPoG6flF36ar-16" edge="1">
          <mxGeometry relative="1" as="geometry">
            <mxPoint x="-260" y="460.5" as="targetPoint" />
            <Array as="points">
              <mxPoint x="-170" y="380" />
              <mxPoint x="-170" y="452" />
            </Array>
            <mxPoint x="-160" y="380" as="sourcePoint" />
          </mxGeometry>
        </mxCell>
        <mxCell id="FwwCy6SQuPoG6flF36ar-11" value=":typeOfLayer" style="edgeLabel;html=1;align=center;verticalAlign=middle;resizable=0;points=[];" parent="FwwCy6SQuPoG6flF36ar-10" vertex="1" connectable="0">
          <mxGeometry x="0.479" y="1" relative="1" as="geometry">
            <mxPoint x="2" y="-3" as="offset" />
          </mxGeometry>
        </mxCell>
        <mxCell id="FwwCy6SQuPoG6flF36ar-12" value="schema:Number" style="rounded=1;whiteSpace=wrap;html=1;fontSize=15;" parent="1" vertex="1">
          <mxGeometry x="-370" y="284.5" width="120" height="30" as="geometry" />
        </mxCell>
        <mxCell id="FwwCy6SQuPoG6flF36ar-13" value="schema:Number" style="rounded=1;whiteSpace=wrap;html=1;fontSize=15;" parent="1" vertex="1">
          <mxGeometry x="-370" y="334.5" width="120" height="30" as="geometry" />
        </mxCell>
        <mxCell id="FwwCy6SQuPoG6flF36ar-14" value="schema:Boolean" style="rounded=1;whiteSpace=wrap;html=1;fontSize=15;" parent="1" vertex="1">
          <mxGeometry x="-370" y="390.5" width="120" height="30" as="geometry" />
        </mxCell>
        <mxCell id="FwwCy6SQuPoG6flF36ar-16" value="&lt;div&gt;:LayerType&lt;/div&gt;" style="rounded=1;whiteSpace=wrap;html=1;fontSize=15;" parent="1" vertex="1">
          <mxGeometry x="-370" y="434.5" width="120" height="30" as="geometry" />
        </mxCell>
        <mxCell id="FwwCy6SQuPoG6flF36ar-36" style="edgeStyle=orthogonalEdgeStyle;rounded=0;orthogonalLoop=1;jettySize=auto;html=1;exitX=1;exitY=0.5;exitDx=0;exitDy=0;entryX=0.5;entryY=1;entryDx=0;entryDy=0;endArrow=block;endFill=1;" parent="1" source="FwwCy6SQuPoG6flF36ar-29" target="FwwCy6SQuPoG6flF36ar-16" edge="1">
          <mxGeometry relative="1" as="geometry">
            <mxPoint x="-310" y="546.8699999999999" as="targetPoint" />
            <Array as="points">
              <mxPoint x="-310" y="493" />
            </Array>
          </mxGeometry>
        </mxCell>
        <mxCell id="FwwCy6SQuPoG6flF36ar-29" value="&lt;div&gt;:FullyConnected&lt;/div&gt;" style="rounded=1;whiteSpace=wrap;html=1;fontSize=15;" parent="1" vertex="1">
          <mxGeometry x="-450" y="481.88" width="120" height="30" as="geometry" />
        </mxCell>
        <mxCell id="FwwCy6SQuPoG6flF36ar-37" style="edgeStyle=orthogonalEdgeStyle;rounded=0;orthogonalLoop=1;jettySize=auto;html=1;exitX=1;exitY=0.5;exitDx=0;exitDy=0;endArrow=block;endFill=1;entryX=0.5;entryY=1;entryDx=0;entryDy=0;" parent="1" source="FwwCy6SQuPoG6flF36ar-30" target="FwwCy6SQuPoG6flF36ar-16" edge="1">
          <mxGeometry relative="1" as="geometry">
            <mxPoint x="-310" y="547.37" as="targetPoint" />
            <Array as="points">
              <mxPoint x="-310" y="528" />
            </Array>
          </mxGeometry>
        </mxCell>
        <mxCell id="FwwCy6SQuPoG6flF36ar-30" value=":Relu" style="rounded=1;whiteSpace=wrap;html=1;fontSize=15;" parent="1" vertex="1">
          <mxGeometry x="-450" y="516.88" width="120" height="30" as="geometry" />
        </mxCell>
        <mxCell id="FwwCy6SQuPoG6flF36ar-38" style="edgeStyle=orthogonalEdgeStyle;rounded=0;orthogonalLoop=1;jettySize=auto;html=1;exitX=1;exitY=0.5;exitDx=0;exitDy=0;endArrow=block;endFill=1;" parent="1" source="FwwCy6SQuPoG6flF36ar-31" edge="1">
          <mxGeometry relative="1" as="geometry">
            <mxPoint x="-310" y="465" as="targetPoint" />
            <Array as="points">
              <mxPoint x="-310" y="563" />
            </Array>
          </mxGeometry>
        </mxCell>
        <mxCell id="FwwCy6SQuPoG6flF36ar-31" value=":Logisic" style="rounded=1;whiteSpace=wrap;html=1;fontSize=15;" parent="1" vertex="1">
          <mxGeometry x="-450" y="552.38" width="120" height="30" as="geometry" />
        </mxCell>
        <mxCell id="FwwCy6SQuPoG6flF36ar-39" style="edgeStyle=orthogonalEdgeStyle;rounded=0;orthogonalLoop=1;jettySize=auto;html=1;exitX=1;exitY=0.5;exitDx=0;exitDy=0;endArrow=block;endFill=1;entryX=0.5;entryY=1;entryDx=0;entryDy=0;" parent="1" source="FwwCy6SQuPoG6flF36ar-32" target="FwwCy6SQuPoG6flF36ar-16" edge="1">
          <mxGeometry relative="1" as="geometry">
            <mxPoint x="-310" y="546.8699999999999" as="targetPoint" />
          </mxGeometry>
        </mxCell>
        <mxCell id="FwwCy6SQuPoG6flF36ar-32" value="......" style="rounded=1;whiteSpace=wrap;html=1;fontSize=15;" parent="1" vertex="1">
          <mxGeometry x="-450" y="590.13" width="120" height="30" as="geometry" />
        </mxCell>
      </root>
    </mxGraphModel>
  </diagram>
</mxfile>
